<svg width="125" height="125" viewBox="0 0 125 125" fill="none" xmlns="http://www.w3.org/2000/svg">
<g id="oui:editor-code-block">
<path id="Vector" d="M18.8595 62.7812L38.2033 82.1094C38.9368 82.8418 39.3492 83.8356 39.35 84.8722C39.3507 85.9088 38.9396 86.9032 38.2072 87.6367C37.4747 88.3702 36.4809 88.7827 35.4443 88.7834C34.4077 88.7841 33.4133 88.3731 32.6798 87.6406L10.5783 65.5391C9.84596 64.8065 9.43457 63.8131 9.43457 62.7773C9.43457 61.7415 9.84596 60.7481 10.5783 60.0156L32.672 37.9219C33.0324 37.5488 33.4634 37.2512 33.94 37.0465C34.4165 36.8417 34.9291 36.734 35.4478 36.7295C35.9665 36.725 36.4808 36.8238 36.9609 37.0202C37.441 37.2166 37.8771 37.5067 38.2439 37.8734C38.6106 38.2402 38.9007 38.6764 39.0971 39.1564C39.2935 39.6365 39.3923 40.1509 39.3878 40.6695C39.3833 41.1882 39.2756 41.7008 39.0708 42.1773C38.8661 42.6539 38.5685 43.085 38.1955 43.4453L18.8595 62.7812ZM87.3595 82.1094L106.695 62.7812L87.3595 43.4453C86.648 42.7086 86.2542 41.7218 86.2631 40.6976C86.272 39.6734 86.6829 38.6937 87.4071 37.9694C88.1314 37.2452 89.1111 36.8344 90.1353 36.8255C91.1595 36.8166 92.1462 37.2103 92.8829 37.9219L114.985 60.0156C115.717 60.7481 116.128 61.7415 116.128 62.7773C116.128 63.8131 115.717 64.8065 114.985 65.5391L92.8829 87.6406C92.5198 88.0033 92.0887 88.2909 91.6144 88.487C91.14 88.683 90.6317 88.7838 90.1185 88.7834C89.6052 88.783 89.097 88.6816 88.623 88.4848C88.1489 88.2881 87.7183 87.9999 87.3556 87.6367C86.9929 87.2735 86.7053 86.8425 86.5093 86.3681C86.3132 85.8938 86.2125 85.3855 86.2128 84.8722C86.2132 84.359 86.3146 83.8508 86.5114 83.3767C86.7081 82.9027 86.9963 82.472 87.3595 82.1094ZM66.8673 19.5781C67.098 18.5954 67.7002 17.7401 68.5476 17.1915C69.395 16.643 70.4219 16.4438 71.413 16.6358C72.404 16.8277 73.2823 17.3959 73.8637 18.2211C74.445 19.0464 74.6843 20.0647 74.5314 21.0625L58.133 105.422C57.9023 106.405 57.3001 107.26 56.4527 107.808C55.6052 108.357 54.5784 108.556 53.5873 108.364C52.5962 108.172 51.718 107.604 51.1366 106.779C50.5553 105.954 50.316 104.935 50.4689 103.937L66.8673 19.5781Z" fill="white"/>
</g>
</svg>
