<svg width="125" height="125" viewBox="0 0 125 125" fill="none" xmlns="http://www.w3.org/2000/svg">
<g id="oui:integration-security" clip-path="url(#clip0_680_33)">
<path id="Vector" d="M107.104 77.0833C103.944 86.838 97.6727 95.2875 89.2512 101.137C80.8296 106.986 70.7224 109.913 60.4783 109.469C50.2343 109.024 40.4185 105.233 32.5352 98.6762C24.652 92.1193 19.1362 83.1584 16.833 73.1667L25.6976 71.4167L8.82259 53.9583L-0.0107422 76.5312L9.33301 74.6979C11.9407 86.427 18.3386 96.9709 27.5381 104.7C36.7376 112.429 48.2266 116.914 60.2297 117.46C72.2328 118.007 84.0817 114.585 93.9456 107.724C103.809 100.862 111.139 90.9436 114.802 79.5L107.104 77.0833ZM115.812 50.625C113.203 38.8963 106.804 28.3533 97.604 20.6251C88.4037 12.897 76.9144 8.41386 64.9115 7.86854C52.9085 7.32322 41.06 10.7461 31.1969 17.6081C21.3338 24.4702 14.0052 34.3895 10.3434 45.8333L17.7705 48.25C20.9294 38.4952 27.1997 30.0452 35.6205 24.1949C44.0413 18.3446 54.1481 15.4168 64.392 15.8601C74.636 16.3033 84.4521 20.0933 92.336 26.6491C100.22 33.2049 105.737 42.165 108.041 52.1562L99.1768 53.9167L116.052 71.3333L124.989 48.7917L115.812 50.625Z" fill="white"/>
<path id="Vector_2" fill-rule="evenodd" clip-rule="evenodd" d="M94.25 41.4271L91.7083 61.7604C90.9614 67.7366 88.8427 73.4591 85.5178 78.4807C82.1929 83.5024 77.7518 87.6873 72.5417 90.7083L62.5 96.5313L52.4583 90.6979C47.2495 87.6779 42.8092 83.4947 39.4844 78.4749C36.1596 73.4551 34.0402 67.7347 33.2917 61.7604L30.75 41.4271L34.3333 38.6979L39.0625 44.9167L41.0417 60.7917C41.6395 65.5722 43.3347 70.1498 45.9946 74.1668C48.6545 78.1837 52.2071 81.5313 56.375 83.9479L62.5 87.5L68.625 83.9479C72.7929 81.5313 76.3455 78.1837 79.0054 74.1668C81.6653 70.1498 83.3605 65.5722 83.9583 60.7917L85.9375 44.9167L90.6667 38.6979L94.25 41.4271ZM85.9375 44.9167C85.9375 44.9167 76.1771 37.5 62.5 37.5C48.8229 37.5 39.0625 44.9167 39.0625 44.9167L34.3333 38.6979L34.3438 38.6875L34.375 38.6667L34.4271 38.625L34.5833 38.5208C35.2723 38.0234 35.9812 37.5542 36.7083 37.1146C38.0833 36.2604 40.0313 35.1667 42.4688 34.0833C47.2917 31.9167 54.2708 29.6875 62.5 29.6875C70.7292 29.6875 77.6979 31.9167 82.5312 34.0833C85.1034 35.2453 87.5768 36.6144 89.9271 38.1771L90.4167 38.5208L90.5729 38.625L90.625 38.6667L90.6458 38.6875L90.6667 38.6979L85.9375 44.9167Z" fill="white"/>
</g>
<defs>
<clipPath id="clip0_680_33">
<rect width="125" height="125" fill="white"/>
</clipPath>
</defs>
</svg>
