<svg width="190" height="37" viewBox="0 0 190 37" fill="none" xmlns="http://www.w3.org/2000/svg">
<g id="Logo">
<path id="Vector" d="M0 28.4671H6.35115V22.886L0 28.4671Z" fill="#29C2F6"/>
<path id="Vector_2" d="M12.7978 5.94536V11.4868H20.327C21.3679 11.4868 22.1689 11.2478 22.7302 10.7697C23.2915 10.2917 23.5718 9.61356 23.5711 8.73541C23.5711 7.85795 23.284 7.1734 22.7098 6.68178C22.1355 6.19016 21.3413 5.94468 20.327 5.94536H12.7978ZM20.6479 22.9695C21.8215 22.9695 22.736 22.6904 23.3913 22.1324C24.0465 21.5743 24.3735 20.8036 24.3721 19.8204C24.3721 18.8107 24.0452 18.0332 23.3913 17.488C22.7373 16.9428 21.8229 16.6716 20.6479 16.6743H6.34961V0.554443H20.2075C23.2237 0.554443 25.5999 1.21898 27.3362 2.54807C29.0725 3.87715 29.9403 5.68768 29.9396 7.97967C29.9396 9.33587 29.6259 10.5253 28.9986 11.5478C28.3758 12.567 27.4624 13.3785 26.3747 13.8792C27.708 14.4421 28.8427 15.3873 29.6344 16.5944C30.4261 17.8015 30.8389 19.216 30.8203 20.6575C30.8203 23.1034 29.8793 25.017 27.9973 26.3983C26.1152 27.7796 23.5186 28.4709 20.2075 28.4723H6.34961V22.8861L20.6479 22.9695Z" fill="white"/>
<path id="Vector_3" d="M48.1223 8.77197H54.9302L42.5947 37H35.9074L39.7522 28.1884L32.0615 8.77197H38.8306L41.1182 14.9919L43.2813 21.4111L45.6037 14.9919L48.1223 8.77197Z" fill="white"/>
<path id="Vector_4" d="M71.5519 27.7124C70.0036 28.4834 68.2547 28.8689 66.3053 28.8689C64.1432 28.8689 62.4346 28.264 61.1792 27.0543C59.9238 25.8446 59.2964 23.8977 59.2971 21.2138V13.7581H55.9346V8.774H59.2992V3.86826L65.5471 3.18982V8.77196H70.4729V13.756H65.5451V21.2118C65.5451 22.0092 65.7453 22.6005 66.1459 22.9857C66.5464 23.3708 67.0934 23.5634 67.7868 23.5634C68.5811 23.5588 69.3631 23.3678 70.0694 23.006L71.5519 27.7124Z" fill="white"/>
<path id="Vector_5" d="M89.3743 9.54899C90.8962 10.3102 92.1574 11.5034 92.9984 12.9778C93.8397 14.4534 94.2603 16.1747 94.2603 18.1419C94.2463 18.9295 94.1781 19.7153 94.0559 20.4936H79.5216C79.7076 21.5046 80.2549 22.3221 81.1636 22.9459C82.0723 23.5698 83.2336 23.882 84.6477 23.8827C85.6259 23.8832 86.5984 23.734 87.5311 23.4403C88.4026 23.1812 89.2176 22.762 89.9342 22.2044L93.2191 25.7126C92.0657 26.7683 90.7105 27.5819 89.2343 28.1049C87.6619 28.6695 86.0015 28.9529 84.33 28.9421C82.0331 28.9421 80.0438 28.5233 78.362 27.6859C76.6802 26.8484 75.386 25.659 74.4794 24.1177C73.5686 22.5811 73.1133 20.7618 73.1133 18.6596C73.1133 16.6396 73.5605 14.8453 74.4548 13.2769C75.3281 11.7304 76.6274 10.4648 78.1995 9.62935C79.8016 8.76545 81.6574 8.3335 83.767 8.3335C85.9304 8.3335 87.7995 8.73866 89.3743 9.54899ZM80.903 14.234C80.1149 14.8714 79.6678 15.7618 79.5615 16.9051H88.2923C88.2126 15.7624 87.7923 14.8721 87.0315 14.234C86.2706 13.5959 85.2489 13.2769 83.9662 13.2769C82.7115 13.2769 81.6905 13.5959 80.903 14.234Z" fill="white"/>
<path id="Vector_6" d="M98.3057 24.0711V0.554443H104.875V11.3637H116.769V0.554443H123.296V28.4682H116.769V17.2643H104.875V17.548M104.875 19.3026V28.4682H98.3057V25.8511" fill="white"/>
<path id="Vector_7" d="M129.044 5.86186C128.363 5.22309 128.022 4.41242 128.022 3.42985C128.022 2.42015 128.37 1.59592 129.064 0.957143C129.758 0.318371 130.639 -0.000677024 131.707 1.07864e-06C132.774 1.07864e-06 133.655 0.319049 134.35 0.957143C135.045 1.59524 135.392 2.41947 135.391 3.42985C135.391 4.41309 135.051 5.22377 134.37 5.86186C133.688 6.49996 132.8 6.81866 131.706 6.81799C130.612 6.81799 129.725 6.49928 129.044 5.86186ZM128.544 8.77194H134.831V28.4681H128.544V8.77194Z" fill="white"/>
<path id="Vector_8" d="M153.777 8.77197H160.465L152.094 28.4681H145.686L137.275 8.77197H144.121L146.484 14.7132L148.927 21.8495L151.37 14.7132L153.777 8.77197Z" fill="white"/>
<path id="Vector_9" d="M177.284 9.54899C178.806 10.3102 180.068 11.5034 180.909 12.9778C181.75 14.4534 182.17 16.1747 182.17 18.1419C182.157 18.9295 182.088 19.7153 181.966 20.4936H167.432C167.618 21.5046 168.166 22.3221 169.074 22.9459C169.982 23.5698 171.143 23.8821 172.558 23.8827C173.536 23.8845 174.509 23.7367 175.442 23.4443C176.313 23.185 177.128 22.7659 177.844 22.2085L181.129 25.7167C179.976 26.7724 178.621 27.586 177.144 28.109C175.572 28.6736 173.912 28.957 172.24 28.9461C169.943 28.9461 167.954 28.5274 166.272 27.6899C164.59 26.8525 163.296 25.6631 162.39 24.1218C161.479 22.5825 161.023 20.7618 161.023 18.6596C161.023 16.6396 161.471 14.8453 162.365 13.2769C163.238 11.7304 164.538 10.4648 166.11 9.62935C167.712 8.76545 169.568 8.3335 171.677 8.3335C173.841 8.3335 175.71 8.73866 177.284 9.54899ZM168.813 14.234C168.025 14.8714 167.578 15.7618 167.472 16.9051H176.202C176.123 15.7625 175.702 14.8721 174.942 14.234C174.181 13.5959 173.159 13.2769 171.876 13.2769C170.622 13.2769 169.601 13.5959 168.813 14.234Z" fill="white"/>
<path id="Vector_10" d="M12.7978 5.94116H6.34961V11.4826H12.7978V5.94116Z" fill="#29C2F6"/>
<path id="Polygon 1" d="M187.504 24.016L189.269 24.7437L190 26.5004L189.269 28.2572L187.504 28.9848L185.74 28.2572L185.009 26.5004L185.74 24.7437L187.504 24.016Z" fill="#29C2F6"/>
</g>
</svg>
